<?xml version="1.0" encoding="UTF-8" standalone="no"?>
<svg
   viewBox="0 0 363.66174 423.94479"
   fill="none"
   version="1.1"
   id="svg47"
   xmlns="http://www.w3.org/2000/svg"
   xmlns:svg="http://www.w3.org/2000/svg">
  <g
     clip-path="url(#clip0_154_30)"
     id="g20"
     transform="matrix(2.078067,0,0,2.0135113,-2.0780651,4.6607754e-7)">
    <path
       d="m 13.95,176 c 10.8053,0 17.9391,6.648 17.9391,16.388 0,9.731 -7.1338,16.389 -17.9391,16.389 H 1 V 176 Z m -0.2908,25.783 c 6.1069,0 10.1146,-3.72 10.1146,-9.395 0,-5.675 -4.0077,-9.394 -10.1146,-9.394 H 9.06081 v 18.78 h 4.59839 z"
       fill="#44b079"
       id="path1" />
    <path
       d="m 62.2514,208.777 h -7.8245 v -1.956 c -1.9084,1.71 -4.453,2.692 -7.6246,2.692 -6.4977,0 -11.9776,-5.229 -11.9776,-13.014 0,-7.73 5.4708,-13.014 11.9776,-13.014 3.1807,0 5.7162,0.982 7.6246,2.692 v -1.956 h 7.8245 z m -7.8245,-12.278 c 0,-3.765 -2.8353,-6.357 -6.016,-6.357 -3.4261,0 -5.9162,2.592 -5.9162,6.357 0,3.82 2.4901,6.357 5.9162,6.357 3.1807,0 6.016,-2.546 6.016,-6.357 z"
       fill="#44b079"
       id="path2" />
    <path
       d="m 86.1063,207.694 c -1.9085,1.028 -3.9078,1.81 -6.6977,1.81 -6.1069,0 -9.7784,-3.328 -9.7784,-9.786 v -9.294 h -4.453 v -6.212 h 4.453 v -7.239 h 7.8246 v 7.239 h 7.2338 v 6.212 h -7.2338 v 8.512 c 0,2.547 1.2177,3.574 3.2715,3.574 1.0724,0 2.5446,-0.391 3.5715,-0.982 z"
       fill="#44b079"
       id="path3" />
    <path
       d="m 114.406,208.777 h -7.825 v -1.956 c -1.908,1.71 -4.453,2.692 -7.6244,2.692 -6.4977,0 -11.9776,-5.229 -11.9776,-13.014 0,-7.73 5.4708,-13.014 11.9776,-13.014 3.1804,0 5.7164,0.982 7.6244,2.692 v -1.956 h 7.825 z m -7.816,-12.278 c 0,-3.765 -2.835,-6.357 -6.016,-6.357 -3.4258,0 -5.9159,2.592 -5.9159,6.357 0,3.82 2.4901,6.357 5.9159,6.357 3.181,0 6.016,-2.546 6.016,-6.357 z"
       fill="#44b079"
       id="path4" />
    <path
       d="m 148.685,176.573 v 19.99 c 0,1.937 -0.364,3.756 -1.091,5.447 -0.727,1.701 -1.726,3.183 -2.999,4.447 -1.272,1.274 -2.753,2.265 -4.444,3.002 -1.699,0.727 -3.507,1.091 -5.443,1.091 -1.936,0 -3.753,-0.364 -5.444,-1.091 -1.699,-0.728 -3.18,-1.728 -4.444,-3.002 -1.272,-1.264 -2.262,-2.755 -2.999,-4.447 -0.727,-1.7 -1.09,-3.51 -1.09,-5.447 v -19.99 h 5.707 v 19.99 c 0,1.109 0.209,2.164 0.618,3.165 0.409,1 1.018,1.891 1.808,2.692 0.791,0.791 1.691,1.4 2.69,1.809 1,0.41 2.054,0.619 3.163,0.619 2.281,0 4.235,-0.81 5.852,-2.428 0.791,-0.792 1.391,-1.692 1.809,-2.692 0.409,-1.001 0.618,-2.056 0.618,-3.165 v -19.99 z"
       fill="#101424"
       id="path5" />
    <path
       d="m 168.85,177.528 c 1.454,0.637 2.727,1.491 3.808,2.574 1.081,1.082 1.936,2.337 2.572,3.783 0.636,1.446 0.954,2.992 0.954,4.638 0,1.646 -0.318,3.201 -0.954,4.666 -0.636,1.455 -1.491,2.728 -2.572,3.81 -1.081,1.082 -2.345,1.937 -3.808,2.574 -1.454,0.637 -3.008,0.955 -4.662,0.955 h -4.753 l 2.327,-5.711 h 2.426 c 1.709,0 3.19,-0.619 4.426,-1.856 1.236,-1.237 1.854,-2.71 1.854,-4.429 0,-1.746 -0.618,-3.201 -1.854,-4.374 -1.236,-1.237 -2.708,-1.855 -4.426,-1.855 h -6.707 v 27.601 h -5.707 v -33.313 h 12.414 c 1.654,-0.018 3.208,0.3 4.662,0.937 z"
       fill="#101424"
       id="path6" />
    <path
       d="m 45.3671,117.975 c 0,-4.17 -3.3866,-7.569 -7.563,-7.569 -4.1665,0 -7.5629,3.389 -7.5629,7.569 0,4.169 3.3865,7.568 7.5629,7.568 4.1764,0 7.563,-3.399 7.563,-7.568 z m -10.8903,0 c 0,-1.838 1.5008,-3.34 3.3372,-3.34 1.8364,0 3.3372,1.502 3.3372,3.34 0,1.837 -1.5008,3.339 -3.3372,3.339 -1.8463,0 -3.3372,-1.502 -3.3372,-3.339 z"
       fill="url(#paint0_linear_154_30)"
       id="path7"
       style="fill:url(#paint0_linear_154_30)" />
    <path
       d="m 37.1618,84.5485 0.5035,0.494 c 0.0889,-0.3952 0.1481,-0.8102 0.1481,-1.235 0,-3.0531 -2.4781,-5.5332 -5.529,-5.5332 -3.0508,0 -5.529,2.4801 -5.529,5.5332 0,3.0531 2.4782,5.5331 5.529,5.5331 0.3949,0 0.78,-0.0395 1.1552,-0.1284 l -0.4443,-0.4348 z m -6.6842,-0.741 c 0,-0.998 0.8096,-1.8082 1.8068,-1.8082 0.9972,0 1.8068,0.8102 1.8068,1.8082 0,0.9979 -0.8096,1.8081 -1.8068,1.8081 -0.9972,0 -1.8068,-0.8102 -1.8068,-1.8081 z"
       fill="url(#paint1_linear_154_30)"
       id="path8"
       style="fill:url(#paint1_linear_154_30)" />
    <path
       d="m 30.3097,64.481 h 0.7997 c -1.1157,-2.6084 -3.7025,-4.4364 -6.7138,-4.4364 -4.0283,0 -7.3062,3.2804 -7.3062,7.3117 0,4.0313 3.2779,7.3117 7.3062,7.3117 2.9323,0 5.4599,-1.739 6.625,-4.2487 h -0.7109 z m -5.9141,6.462 c -1.9747,0 -3.584,-1.6106 -3.584,-3.5867 0,-1.9761 1.6093,-3.5867 3.584,-3.5867 1.9746,0 3.584,1.6106 3.584,3.5867 0,1.9761 -1.6094,3.5867 -3.584,3.5867 z"
       fill="url(#paint2_linear_154_30)"
       id="path9"
       style="fill:url(#paint2_linear_154_30)" />
    <path
       d="m 67.5318,45.4509 c 4.0283,0 7.3063,-3.2803 7.3063,-7.3116 0,-4.0313 -3.278,-7.3117 -7.3063,-7.3117 -4.0283,0 -7.3062,3.2804 -7.3062,7.3117 0,4.0313 3.2779,7.3116 7.3062,7.3116 z m 0,-10.8983 c 1.9747,0 3.584,1.6105 3.584,3.5867 0,1.9761 -1.6093,3.5866 -3.584,3.5866 -1.9746,0 -3.584,-1.6105 -3.584,-3.5866 0,-1.9762 1.6094,-3.5867 3.584,-3.5867 z"
       fill="url(#paint3_linear_154_30)"
       id="path10"
       style="fill:url(#paint3_linear_154_30)" />
    <path
       d="m 149.223,59.1257 c -1.263,1.2055 -1.352,3.4582 -0.177,4.6736 1.184,1.235 3.416,1.2746 4.68,0.0988 1.254,-1.1758 1.273,-3.3792 0.039,-4.6538 -1.214,-1.2548 -3.298,-1.3042 -4.542,-0.1186 z"
       fill="url(#paint4_linear_154_30)"
       id="path11"
       style="fill:url(#paint4_linear_154_30)" />
    <path
       d="m 156.688,62.6629 c 0.158,-0.1383 0.335,-0.2569 0.483,-0.4051 2.844,-2.7864 5.687,-5.5628 8.521,-8.3393 -0.207,-1.3734 -0.415,-2.6677 -0.622,-3.8633 -3.041,2.9543 -6.092,5.8987 -9.153,8.8827 0.573,1.1264 0.81,2.3219 0.771,3.725 z"
       fill="url(#paint5_linear_154_30)"
       id="path12"
       style="fill:url(#paint5_linear_154_30)" />
    <path
       d="m 110.629,83.7384 c -1.244,1.0474 -1.481,3.0334 -0.257,4.4068 1.106,1.235 3.07,1.3536 4.305,0.2075 1.283,-1.1956 1.392,-2.8951 0.167,-4.4068 -1.056,-1.1857 -2.942,-1.2845 -4.215,-0.2075 z"
       fill="url(#paint6_linear_154_30)"
       id="path13"
       style="fill:url(#paint6_linear_154_30)" />
    <path
       d="m 149.668,22.9725 c -1.214,1.1758 -1.195,3.1519 0.049,4.3968 1.155,1.1462 3.11,1.1166 4.295,-0.079 1.165,-1.1659 1.155,-3.1025 -0.029,-4.2981 -1.136,-1.1461 -3.14,-1.156 -4.315,-0.0197 z"
       fill="url(#paint7_linear_154_30)"
       id="path14"
       style="fill:url(#paint7_linear_154_30)" />
    <path
       d="m 166.008,56.1615 c -5.154,5.0193 -10.307,10.0387 -15.471,15.0481 -0.524,0.504 -0.741,1.0178 -0.751,1.739 0,1.5908 -0.118,3.1915 -0.128,4.7823 -0.01,0.662 -0.197,1.1758 -0.701,1.6402 -1.264,1.1758 -2.478,2.4009 -3.722,3.5965 -0.148,0.1482 -0.336,0.2569 -0.553,0.4249 -0.444,-0.3755 -0.859,-0.6818 -1.057,-1.2351 0.139,-0.1779 0.257,-0.3656 0.415,-0.5138 1.017,-0.9881 2.014,-1.9959 3.061,-2.9543 0.533,-0.4842 0.77,-1.0078 0.76,-1.739 -0.01,-1.6402 0.099,-3.2804 0.109,-4.9107 0,-0.6323 0.207,-1.0868 0.651,-1.5117 1.195,-1.1165 2.37,-2.2627 3.555,-3.3989 0.108,-0.1087 0.217,-0.2273 0.444,-0.4743 -0.336,-0.0198 -0.494,-0.0198 -0.661,-0.0297 -0.534,-0.0296 -1.067,0 -1.58,-0.1086 -2.034,-0.4348 -3.416,-1.6501 -3.949,-3.6756 -0.534,-2.0058 -0.04,-3.8238 1.54,-5.1775 1.52,-1.2943 3.307,-1.6204 5.223,-0.9288 0.493,0.1779 0.967,0.4249 1.441,0.6423 0.652,-0.4644 5.727,-5.3059 10.022,-9.5052 -0.504,-2.6184 -0.998,-4.7032 -1.393,-6.0865 -0.849,-3.0037 -1.589,-7.8649 -2.211,-13.2202 -1.136,1.1066 -2.281,2.2034 -3.426,3.3001 -0.326,0.3162 -0.425,0.6521 -0.435,1.077 -0.019,1.3932 -0.088,2.7962 -0.098,4.1894 0,0.5632 -0.198,0.9683 -0.612,1.324 -0.494,0.415 -0.938,0.8892 -1.403,1.3437 -3.277,3.1816 -6.545,6.3632 -9.823,9.5349 -0.04,0.0395 -0.079,0.0889 -0.119,0.1284 0.02,3.7942 -0.375,7.5883 -1.185,11.3034 -2.606,11.9556 -9.498,21.4114 -17.989,29.9186 -4.621,4.634 -9.251,9.2779 -13.99,13.7936 -3.13,2.984 -6.309,5.928 -9.538,8.813 -0.079,0.069 -0.355,0.287 -0.73,0.573 v 10.019 h 3.198 c 1.166,-1.225 2.4,-2.341 3.584,-3.517 1.333,-1.324 2.696,-2.619 4.039,-3.923 1.382,-1.334 2.764,-2.677 4.137,-4.021 1.342,-1.304 2.685,-2.609 3.988,-3.903 0.06,-2.194 0.158,-4.298 0.158,-6.403 0,-0.81 0.267,-1.353 0.84,-1.897 2.182,-2.0846 4.354,-4.1793 6.516,-6.2839 l 0.661,2.0651 c -1.826,1.7686 -3.653,3.5372 -5.489,5.2958 -0.444,0.425 -0.573,0.87 -0.583,1.453 -0.029,1.877 -0.128,3.754 -0.138,5.632 -0.01,0.751 -0.257,1.294 -0.819,1.778 -0.662,0.563 -1.264,1.196 -1.886,1.798 -4.098,3.972 -8.185,7.954 -12.282,11.926 h 4.946 l 21.958,-24.6716 c -0.257,-0.6719 -0.405,-1.3932 -0.405,-2.154 0,-3.2705 2.646,-5.9185 5.914,-5.9185 3.269,0 5.915,2.648 5.915,5.9185 0,3.2706 -2.646,5.9186 -5.915,5.9186 -0.286,0 -0.572,-0.02 -0.858,-0.059 l -23.943,26.914 h -13.517 v 25.818 c 0,0 -3.4652,0.9 -9.33,1.127 V 64.6884 L 110.55,43.8897 v -12.41 h -0.81 c 2.982,-0.9189 5.144,-3.7053 5.144,-6.9857 0,-4.0312 -3.278,-7.3116 -7.306,-7.3116 -4.028,0 -7.306,3.2804 -7.306,7.3116 0,3.2804 2.172,6.0668 5.144,6.9857 h -0.81 V 41.6271 L 92.3832,55.6279 V 21.8263 c 4.4232,-1.0474 7.7208,-5.0293 7.7208,-9.772 0,-5.54299 -4.5021,-10.03868 -10.0312,-10.03868 -5.5389,0 -10.0312,4.50557 -10.0312,10.03868 0,4.2586 2.6657,7.9144 6.4176,9.3669 V 120.919 L 75.6973,112.906 V 72.178 L 44.6162,45.9548 c 0.3357,-1.0079 0.5233,-2.0848 0.5233,-3.2112 0,-5.5431 -4.5022,-10.0387 -10.0312,-10.0387 -5.5291,0 -10.0313,4.5055 -10.0313,10.0387 0,5.543 4.5022,10.0387 10.0313,10.0387 2.2609,0 4.3442,-0.7509 6.0227,-2.0157 L 69.7734,74.9248 V 95.6741 L 53.4528,81.2089 V 70.5872 L 46.2749,64.4809 H 31.1392 c 0.3752,0.8794 0.5924,1.8576 0.5924,2.8753 0,1.0968 -0.2468,2.1342 -0.6813,3.063 h 13.0426 l 3.4261,2.9148 v 10.5525 l 22.284,19.8205 -0.0296,-1.284 v 13.457 l 16.6957,12.43 v 28.407 c -3.1299,-0.139 -6.6645,-0.485 -10.4953,-1.176 V 135.424 L 60.6011,124.022 V 107.56 L 37.6951,85.0228 c -0.474,2.0848 -2.1327,3.725 -4.2258,4.1696 L 54.6672,110.05 v 16.956 l 15.3727,11.402 v 15.829 C 61.855,152.132 52.6432,148.427 43.0562,142.113 16.9019,124.891 14.088,94.7453 13.861,85.3785 13.8412,84.588 13.5055,83.8667 12.9822,83.3529 12.4589,82.8392 11.7283,82.523 10.9385,82.523 c -1.59951,0 -2.91266,1.2845 -2.9324,2.8851 -0.45417,34.7399 24.5055,68.7889 60.7009,76.2879 6.161,1.275 12.0849,1.927 17.7621,1.996 2.0042,0.03 3.9888,-0.019 5.9338,-0.138 3.1891,-0.188 6.2992,-0.573 9.3301,-1.126 21.435,-3.953 38.861,-16.857 52.585,-35.393 14.968,-20.225 14.238,-51.7842 11.69,-70.8735 z M 35.0786,47.9507 c -2.8731,0 -5.2032,-2.3418 -5.2032,-5.2071 0,-2.8753 2.34,-5.2071 5.2032,-5.2071 2.8732,0 5.2033,2.3417 5.2033,5.2071 0.0098,2.8752 -2.3301,5.2071 -5.2033,5.2071 z M 90.0531,17.2614 c -2.8732,0 -5.2033,-2.3417 -5.2033,-5.2071 0,-2.87522 2.34,-5.20704 5.2033,-5.20704 2.8731,0 5.2032,2.3417 5.2032,5.20704 0.0099,2.8753 -2.3301,5.2071 -5.2032,5.2071 z M 113.897,151.697 c 0,0 6.309,-11.876 14.84,-17.627 8.53,-5.75 24.475,-22.923 23.923,-63.4729 -0.01,0 20.023,49.3639 -38.763,81.0999 z"
       fill="url(#paint8_linear_154_30)"
       id="path15"
       style="fill:url(#paint8_linear_154_30)" />
    <path
       d="m 105.732,74.3912 c 1.333,-1.324 2.696,-2.6183 4.038,-3.9226 1.383,-1.3339 2.765,-2.6776 4.137,-4.0214 1.343,-1.3042 2.686,-2.6085 3.989,-3.9028 0.059,-2.1935 0.158,-4.2981 0.158,-6.4027 0,-0.8102 0.267,-1.3536 0.839,-1.8971 2.182,-2.0848 4.354,-4.1795 6.517,-6.284 l 0.661,2.065 c -1.826,1.7686 -3.653,3.5373 -5.489,5.296 -0.445,0.4249 -0.573,0.8695 -0.583,1.4525 -0.03,1.8773 -0.128,3.7546 -0.138,5.6319 0,0.751 -0.257,1.2944 -0.82,1.7785 -0.661,0.5632 -1.263,1.1956 -1.885,1.7983 -4.256,4.1301 -8.501,8.2602 -12.757,12.3903 -2.389,8.695 -2.675,15.6707 -2.675,18.5163 v 7.5286 c 2.567,-2.074 5.104,-4.179 7.632,-6.3133 9.547,-8.0823 19.312,-16.4611 25.186,-27.725 2.795,-5.3652 4.73,-11.1453 6.072,-17.0342 0.682,-3.0136 1.215,-6.0568 1.62,-9.1099 0.197,-1.5217 0.375,-3.0433 0.513,-4.5748 0.119,-1.235 0.691,-3.3594 0.346,-4.5451 1.165,4.0215 1.836,8.1812 2.014,12.3706 0.503,-0.4842 1.017,-0.9584 1.51,-1.4525 0.998,-0.9781 2.005,-1.9464 3.002,-2.9147 1.027,-0.998 2.054,-1.9861 3.08,-2.984 0.998,-0.9683 1.995,-1.9366 2.962,-2.9049 0.04,-1.6303 0.119,-3.2013 0.119,-4.7625 0,-0.6027 0.197,-1.0078 0.622,-1.4129 1.501,-1.4327 2.982,-2.8654 4.472,-4.3079 -0.316,-2.8852 -0.592,-5.8593 -0.839,-8.7444 -1.412,1.3734 -2.833,2.7468 -4.235,4.1301 0.631,1.245 1.076,2.4603 0.868,3.8139 -0.217,1.4129 -0.957,2.4998 -2.093,3.3298 -1.599,1.1659 -4.324,0.9485 -5.874,-0.3952 -2.064,-1.7884 -2.113,-4.4661 -1.225,-5.9482 0.573,-0.9584 1.323,-1.7291 2.36,-2.1935 1.521,-0.6719 3.021,-0.5434 4.542,0.1285 0.701,-0.583 3.199,-2.9741 5.47,-5.1874 C 159.156,7.11405 158.801,0 158.801,0 c -7.049,15.0778 -19.559,27.9128 -35.267,45.5694 -9.577,9.436 -14.968,19.9194 -17.989,29.0392 0.049,-0.0889 0.118,-0.1482 0.187,-0.2174 z m 27.586,-15.5126 c -2.33,2.3121 -4.66,4.6143 -6.99,6.9165 -0.326,0.3162 -0.474,0.6521 -0.484,1.1066 -0.059,2.2726 -0.168,4.5451 -0.197,6.8177 -0.01,0.7212 -0.208,1.2548 -0.741,1.7686 -2.399,2.3022 -4.749,4.6538 -7.119,6.9856 -0.296,0.2964 -0.572,0.6027 -0.868,0.9189 0.128,0.4051 0.256,0.7509 0.355,1.1165 0.474,1.739 0.188,3.3495 -0.928,4.7624 -1.155,1.4624 -3.564,2.2627 -5.855,1.1264 -1.925,-0.9485 -3.041,-3.0333 -2.695,-5.1082 0.345,-2.0947 2.053,-3.725 4.156,-4.0017 0.938,-0.1284 1.847,0.0099 2.725,0.3557 0.346,0.1383 0.691,0.2569 1.027,0.3755 0.217,-0.1976 0.385,-0.3261 0.533,-0.4743 2.232,-2.1737 4.463,-4.3475 6.685,-6.5311 0.207,-0.2075 0.414,-0.415 0.612,-0.6323 0.227,-0.2569 0.335,-0.5534 0.345,-0.919 0.059,-2.4009 0.158,-4.7921 0.188,-7.193 0.01,-0.6423 0.227,-1.0869 0.691,-1.5315 2.676,-2.5591 5.332,-5.138 7.987,-7.7069 z"
       fill="url(#paint9_linear_154_30)"
       id="path16"
       style="fill:url(#paint9_linear_154_30)" />
    <path
       d="m 37.6656,85.0425 -0.5036,-0.494 -4.1566,4.2388 0.4443,0.4347 c 2.0832,-0.4545 3.7419,-2.0947 4.2159,-4.1795 z"
       fill="url(#paint10_linear_154_30)"
       id="path17"
       style="fill:url(#paint10_linear_154_30)" />
    <path
       d="m 37.6656,85.0425 -0.5036,-0.494 -4.1566,4.2388 0.4443,0.4347 c 2.0832,-0.4545 3.7419,-2.0947 4.2159,-4.1795 z"
       fill="url(#paint11_linear_154_30)"
       id="path18"
       style="fill:url(#paint11_linear_154_30)" />
    <path
       d="m 31.1093,64.481 h -0.7997 v 5.9383 h 0.7108 c 0.4345,-0.9288 0.6813,-1.9663 0.6813,-3.063 0,-1.0177 -0.2172,-1.9861 -0.5924,-2.8753 z"
       fill="url(#paint12_linear_154_30)"
       id="path19"
       style="fill:url(#paint12_linear_154_30)" />
    <path
       d="m 31.1093,64.481 h -0.7997 v 5.9383 h 0.7108 c 0.4345,-0.9288 0.6813,-1.9663 0.6813,-3.063 0,-1.0177 -0.2172,-1.9861 -0.5924,-2.8753 z"
       fill="url(#paint13_linear_154_30)"
       id="path20"
       style="fill:url(#paint13_linear_154_30)" />
  </g>
  <defs
     id="defs47">
    <linearGradient
       id="paint0_linear_154_30"
       x1="85.678398"
       y1="147.007"
       x2="17.320801"
       y2="105.609"
       gradientUnits="userSpaceOnUse">
      <stop
         stop-color="#1E5E52"
         id="stop20" />
      <stop
         offset="1"
         stop-color="#48AC3A"
         id="stop21" />
    </linearGradient>
    <linearGradient
       id="paint1_linear_154_30"
       x1="101.481"
       y1="125.78"
       x2="33.123199"
       y2="84.382202"
       gradientUnits="userSpaceOnUse">
      <stop
         stop-color="#1E5E52"
         id="stop22" />
      <stop
         offset="1"
         stop-color="#48AC3A"
         id="stop23" />
    </linearGradient>
    <linearGradient
       id="paint2_linear_154_30"
       x1="104.451"
       y1="115.915"
       x2="36.092999"
       y2="74.517403"
       gradientUnits="userSpaceOnUse">
      <stop
         stop-color="#1E5E52"
         id="stop24" />
      <stop
         offset="1"
         stop-color="#48AC3A"
         id="stop25" />
    </linearGradient>
    <linearGradient
       id="paint3_linear_154_30"
       x1="128.383"
       y1="75.043404"
       x2="60.024899"
       y2="33.645302"
       gradientUnits="userSpaceOnUse">
      <stop
         stop-color="#1E5E52"
         id="stop26" />
      <stop
         offset="1"
         stop-color="#48AC3A"
         id="stop27" />
    </linearGradient>
    <linearGradient
       id="paint4_linear_154_30"
       x1="140.556"
       y1="54.9426"
       x2="72.198196"
       y2="13.5446"
       gradientUnits="userSpaceOnUse">
      <stop
         stop-color="#1E5E52"
         id="stop28" />
      <stop
         offset="1"
         stop-color="#48AC3A"
         id="stop29" />
    </linearGradient>
    <linearGradient
       id="paint5_linear_154_30"
       x1="145.386"
       y1="46.9664"
       x2="77.028603"
       y2="5.56848"
       gradientUnits="userSpaceOnUse">
      <stop
         stop-color="#1E5E52"
         id="stop30" />
      <stop
         offset="1"
         stop-color="#48AC3A"
         id="stop31" />
    </linearGradient>
    <linearGradient
       id="paint6_linear_154_30"
       x1="119.268"
       y1="90.093102"
       x2="50.9105"
       y2="48.695099"
       gradientUnits="userSpaceOnUse">
      <stop
         stop-color="#1E5E52"
         id="stop32" />
      <stop
         offset="1"
         stop-color="#48AC3A"
         id="stop33" />
    </linearGradient>
    <linearGradient
       id="paint7_linear_154_30"
       x1="156.772"
       y1="28.1656"
       x2="88.414902"
       y2="-13.2323"
       gradientUnits="userSpaceOnUse">
      <stop
         stop-color="#1E5E52"
         id="stop34" />
      <stop
         offset="1"
         stop-color="#48AC3A"
         id="stop35" />
    </linearGradient>
    <linearGradient
       id="paint8_linear_154_30"
       x1="114.773"
       y1="97.516502"
       x2="46.415199"
       y2="56.118401"
       gradientUnits="userSpaceOnUse">
      <stop
         stop-color="#1E5E52"
         id="stop36" />
      <stop
         offset="1"
         stop-color="#48AC3A"
         id="stop37" />
    </linearGradient>
    <linearGradient
       id="paint9_linear_154_30"
       x1="138.998"
       y1="57.5149"
       x2="70.6409"
       y2="16.1168"
       gradientUnits="userSpaceOnUse">
      <stop
         stop-color="#1E5E52"
         id="stop38" />
      <stop
         offset="1"
         stop-color="#48AC3A"
         id="stop39" />
    </linearGradient>
    <linearGradient
       id="paint10_linear_154_30"
       x1="100.931"
       y1="126.689"
       x2="32.573299"
       y2="85.290497"
       gradientUnits="userSpaceOnUse">
      <stop
         stop-color="#1E5E52"
         id="stop40" />
      <stop
         offset="1"
         stop-color="#48AC3A"
         id="stop41" />
    </linearGradient>
    <linearGradient
       id="paint11_linear_154_30"
       x1="98.133598"
       y1="124.992"
       x2="29.7759"
       y2="83.593903"
       gradientUnits="userSpaceOnUse">
      <stop
         stop-color="#1E5E52"
         id="stop42" />
      <stop
         offset="1"
         stop-color="#48AC3A"
         id="stop43" />
    </linearGradient>
    <linearGradient
       id="paint12_linear_154_30"
       x1="106.105"
       y1="113.184"
       x2="37.747501"
       y2="71.7855"
       gradientUnits="userSpaceOnUse">
      <stop
         stop-color="#1E5E52"
         id="stop44" />
      <stop
         offset="1"
         stop-color="#48AC3A"
         id="stop45" />
    </linearGradient>
    <linearGradient
       id="paint13_linear_154_30"
       x1="105.505"
       y1="112.82"
       x2="37.147301"
       y2="71.421501"
       gradientUnits="userSpaceOnUse">
      <stop
         stop-color="#1E5E52"
         id="stop46" />
      <stop
         offset="1"
         stop-color="#48AC3A"
         id="stop47" />
    </linearGradient>
    <clipPath
       id="clip0_154_30">
      <rect
         width="176"
         height="211"
         fill="#ffffff"
         id="rect47"
         x="0"
         y="0" />
    </clipPath>
  </defs>
</svg>
