<?xml version="1.0" encoding="UTF-8" standalone="no"?>
<!-- Created with Inkscape (http://www.inkscape.org/) -->

<svg
   width="78.616302mm"
   height="77.412086mm"
   viewBox="0 0 78.616302 77.412086"
   version="1.1"
   id="svg1"
   inkscape:export-filename="dataup_logo_part1.svg"
   inkscape:export-xdpi="96"
   inkscape:export-ydpi="96"
   xmlns:inkscape="http://www.inkscape.org/namespaces/inkscape"
   xmlns:sodipodi="http://sodipodi.sourceforge.net/DTD/sodipodi-0.dtd"
   xmlns="http://www.w3.org/2000/svg"
   xmlns:svg="http://www.w3.org/2000/svg">
  <sodipodi:namedview
     id="namedview1"
     pagecolor="#ffffff"
     bordercolor="#000000"
     borderopacity="0.25"
     inkscape:showpageshadow="2"
     inkscape:pageopacity="0.0"
     inkscape:pagecheckerboard="0"
     inkscape:deskcolor="#d1d1d1"
     inkscape:document-units="mm">
    <inkscape:page
       x="0"
       y="0"
       width="78.616302"
       height="77.412086"
       id="page2"
       margin="0"
       bleed="0" />
  </sodipodi:namedview>
  <defs
     id="defs1">
    <clipPath
       clipPathUnits="userSpaceOnUse"
       id="clipPath4">
      <path
         d="M 0,595.276 H 841.89 V 0 H 0 Z"
         transform="translate(-144.1242,-315.71041)"
         id="path4" />
    </clipPath>
    <clipPath
       clipPathUnits="userSpaceOnUse"
       id="clipPath2">
      <path
         d="M 0,595.276 H 841.89 V 0 H 0 Z"
         transform="translate(-220.8511,-217.81681)"
         id="path2" />
    </clipPath>
    <clipPath
       clipPathUnits="userSpaceOnUse"
       id="clipPath10">
      <path
         d="M 0,595.276 H 841.89 V 0 H 0 Z"
         transform="translate(-272.7865,-251.31821)"
         id="path10" />
    </clipPath>
    <clipPath
       clipPathUnits="userSpaceOnUse"
       id="clipPath18">
      <path
         d="M 0,595.276 H 841.89 V 0 H 0 Z"
         id="path18" />
    </clipPath>
    <clipPath
       clipPathUnits="userSpaceOnUse"
       id="clipPath20">
      <path
         d="M 0,595.276 H 841.89 V 0 H 0 Z"
         id="path20" />
    </clipPath>
    <clipPath
       clipPathUnits="userSpaceOnUse"
       id="clipPath22">
      <path
         d="M 0,595.276 H 841.89 V 0 H 0 Z"
         id="path22" />
    </clipPath>
    <clipPath
       clipPathUnits="userSpaceOnUse"
       id="clipPath26">
      <path
         d="M 0,595.276 H 841.89 V 0 H 0 Z"
         id="path26" />
    </clipPath>
    <clipPath
       clipPathUnits="userSpaceOnUse"
       id="clipPath28">
      <path
         d="M 0,595.276 H 841.89 V 0 H 0 Z"
         transform="translate(-234.69471,-287.71801)"
         id="path28" />
    </clipPath>
    <clipPath
       clipPathUnits="userSpaceOnUse"
       id="clipPath24">
      <path
         d="M 0,595.276 H 841.89 V 0 H 0 Z"
         id="path24" />
    </clipPath>
  </defs>
  <g
     inkscape:label="Layer 1"
     inkscape:groupmode="layer"
     id="layer1"
     transform="translate(-64.798896,-101.79551)">
    <path
       id="path1"
       d="M 0,0 C -0.378,2.472 -1.641,4.216 -4.333,4.433 -6.729,4.626 -9.001,2.231 -8.759,-0.237 -8.501,-2.872 -6.87,-4.544 -4.283,-4.515 -1.658,-4.487 -0.214,-2.739 0,0 m -75.209,168.794 c -0.376,2.447 -1.713,4.136 -4.471,4.117 -2.725,-0.019 -4.341,-1.598 -4.379,-4.293 -0.04,-2.905 1.677,-4.559 4.563,-4.483 2.727,0.071 4.035,1.845 4.287,4.659 m 49.485,26.003 c 2.868,0.413 4.419,2.056 4.264,4.924 -0.152,2.821 -2.062,4.061 -4.68,3.948 -2.499,-0.108 -4.114,-1.603 -4.08,-4.168 0.037,-2.8 1.584,-4.479 4.496,-4.704 m 76.198,1.843 c -0.256,2.639 -1.807,4.049 -4.508,4.042 -2.701,-0.007 -4.471,-1.509 -4.532,-4.159 -0.065,-2.825 1.798,-4.523 4.559,-4.636 3.002,-0.123 4.214,1.901 4.481,4.753 m 17.485,-49.087 c 0.1,-2.883 1.484,-4.723 4.364,-4.755 2.683,-0.029 4.259,1.775 4.381,4.33 0.137,2.87 -1.782,4.557 -4.443,4.709 -2.697,0.155 -4.048,-1.696 -4.302,-4.284 m -126.615,25.25 c -2.006,1.576 -4.071,3.083 -5.996,4.752 -1.33,1.152 -2.285,2.536 -0.602,4.231 1.774,1.785 3.211,0.891 4.578,-0.534 1.683,-1.755 3.332,-3.543 5.012,-5.301 2.791,-2.918 5.675,-5.563 10.231,-4.955 2.23,0.298 3.85,-1.041 5.336,-2.555 2.779,-2.833 5.599,-5.626 8.424,-8.414 0.62,-0.611 1.209,-1.541 2.22,-1.252 1.079,0.308 0.983,1.396 0.986,2.272 0.03,8.451 -0.014,16.902 0.077,25.352 0.028,2.676 -1.884,3.659 -3.602,4.996 -3.293,2.565 -4.691,6.859 -3.489,10.65 1.266,3.996 3.901,6.544 8.169,7.161 4.302,0.623 8,-1.085 10.168,-4.671 2.561,-4.239 1.484,-9.823 -2.556,-13.146 -0.887,-0.729 -1.963,-1.271 -2.711,-2.113 -0.899,-1.011 -1.274,-2.488 -0.299,-3.512 1.167,-1.226 2.08,0.166 2.851,0.894 2.139,2.023 4.195,4.134 6.29,6.204 1.211,1.195 2.468,1.868 3.976,0.407 1.516,-1.468 0.89,-2.742 -0.316,-3.959 -3.062,-3.09 -6.079,-6.228 -9.23,-9.226 -2.563,-2.439 -3.882,-5.208 -3.762,-8.84 0.177,-5.372 0.024,-10.754 0.03,-16.132 0.002,-1.67 -0.125,-3.503 1.084,-4.768 3.975,-4.164 7.846,-8.482 12.229,-12.181 2.621,-2.211 2.068,1.092 2.1,2.126 0.262,8.698 0.419,17.401 0.514,26.104 0.066,6.108 0.001,6.109 6.152,6.131 11.673,0.042 11.669,0.042 11.676,11.916 0.002,2.561 0.016,5.122 0.06,7.682 0.029,1.738 0.662,3.052 2.656,3.039 2,-0.013 2.623,-1.402 2.652,-3.087 0.082,-4.865 0.04,-9.731 0.147,-14.595 0.032,-1.465 -0.552,-3.411 1.098,-4.192 1.757,-0.833 2.698,1.021 3.732,2.032 4.394,4.295 8.693,8.688 13.082,12.989 1.666,1.632 2.421,3.238 1.907,5.769 -1.274,6.268 2.678,11.655 8.542,12.175 6.365,0.563 11.516,-3.994 11.432,-10.116 -0.083,-6.082 -5.306,-10.607 -11.729,-9.711 -2.917,0.407 -4.857,-0.433 -6.785,-2.43 -4.536,-4.697 -9.291,-9.183 -13.788,-13.915 -2.121,-2.232 -4.489,-3.143 -7.502,-3.068 -4.479,0.112 -8.965,-0.083 -13.444,0.028 -3.359,0.084 -5.036,-1.179 -4.852,-4.718 0.154,-2.938 0.06,-5.888 0.058,-8.833 -10e-4,-2.214 1.116,-3.331 3.298,-3.332 8.963,-0.006 17.926,0.012 26.888,0.022 1.818,0.003 3.087,1.023 4.294,2.237 3.16,3.177 6.395,6.279 9.524,9.485 1.385,1.419 2.584,1.953 4.167,0.27 1.545,-1.643 1.033,-2.944 -0.37,-4.265 -1.678,-1.578 -3.365,-3.148 -4.983,-4.786 -0.596,-0.604 -1.452,-1.288 -0.929,-2.301 0.407,-0.785 1.324,-0.673 2.07,-0.674 5.762,-0.009 11.524,0.036 17.285,0.003 2.263,-0.013 3.315,1.532 4.55,3.049 3.687,4.528 10.109,5.463 14.398,2.129 3.197,-2.484 4.683,-5.802 3.901,-9.807 -0.802,-4.107 -3.391,-6.91 -7.418,-8.012 -4.069,-1.114 -7.923,-0.029 -10.301,3.371 -2.158,3.085 -4.688,3.744 -8.132,3.723 -17.671,-0.107 -35.342,-0.022 -53.013,-0.034 -4.92,-0.003 -5.246,-0.325 -5.233,-5.238 0.089,-31.37 0.233,-62.739 0.291,-94.108 0.02,-10.236 -0.116,-20.473 -0.277,-30.708 -0.042,-2.63 0.615,-4.49 2.986,-6.099 5.171,-3.511 6.08,-10.291 2.334,-14.766 -3.793,-4.53 -10.463,-5.031 -14.701,-1.104 -4.542,4.209 -4.647,11.168 0.353,15.184 2.923,2.347 3.515,4.913 3.508,8.283 -0.062,30.855 -0.031,61.711 -0.027,92.567 0,5.243 -0.04,10.487 0.017,15.729 0.027,2.451 -0.759,4.427 -2.52,6.177 -10.988,10.924 -21.941,21.881 -32.86,32.873 -1.849,1.861 -3.95,2.703 -6.536,2.615 -5.884,-0.201 -11.769,-0.431 -17.655,-0.472 -2.633,-0.018 -3.707,-1.834 -5.108,-3.499 -3.242,-3.853 -8.791,-4.763 -12.826,-2.228 -4.318,2.713 -6.018,8.16 -3.993,12.798 2.033,4.656 7.136,6.991 12.134,5.569 1.776,-0.505 3.644,-1.259 4.431,-2.842 2.916,-5.865 7.895,-4.192 12.507,-4.01 0.38,0.505 0.76,1.01 1.14,1.515"
       style="fill:#0ea771;fill-opacity:1;fill-rule:nonzero;stroke:none"
       transform="matrix(0.35277776,0,0,-0.35277776,101.09791,175.64318)"
       clip-path="url(#clipPath2)" />
    <path
       id="path3"
       d="M 0,0 C -0.268,2.626 -1.673,4.251 -4.356,4.288 -7.052,4.326 -8.694,2.715 -8.734,0.077 -8.775,-2.714 -7.198,-4.516 -4.271,-4.425 -1.597,-4.342 -0.213,-2.679 0,0 m 33.296,43.846 c 2.723,0.227 4.47,1.482 4.685,4.222 0.186,2.362 -2.258,4.751 -4.653,4.594 -2.748,-0.18 -4.227,-1.946 -4.299,-4.503 -0.077,-2.73 1.672,-4.113 4.267,-4.313 M -20.452,31.224 c -0.102,-2.699 1.799,-4.856 4.187,-4.773 2.653,0.092 4.269,1.588 4.543,4.249 0.245,2.39 -2.1,4.946 -4.425,4.772 -2.7,-0.201 -3.998,-1.946 -4.305,-4.248 M 33.192,-73.243 c -2.459,-0.279 -4.257,-1.633 -4.198,-4.358 0.056,-2.651 1.837,-4.252 4.445,-4.374 2.691,-0.126 4.492,1.448 4.559,4.123 0.072,2.872 -1.773,4.355 -4.806,4.609 M 29.21,2.6 c -0.123,2.735 -1.549,4.536 -4.399,4.61 -2.675,0.069 -4.307,-1.591 -4.42,-4.234 -0.122,-2.872 1.551,-4.556 4.386,-4.659 2.716,-0.098 4.181,1.476 4.433,4.283 m 30.308,-32.929 c 0,-15.112 -0.072,-30.226 0.054,-45.338 0.028,-3.418 -0.976,-5.08 -4.594,-4.663 -1.517,0.175 -3.079,-0.076 -4.605,0.053 -3.906,0.331 -6.878,-0.428 -9.494,-4.054 -3.441,-4.768 -10.589,-4.657 -14.625,-0.564 -4.085,4.142 -3.894,10.968 0.414,14.775 4.446,3.929 11.254,3.194 14.972,-1.615 2.399,-3.104 6.258,-4.326 10.034,-3.285 1.694,0.467 2.181,1.665 2.184,3.176 0.02,11.911 0.031,23.821 0.007,35.731 -0.006,2.935 -1.936,3.512 -4.413,3.497 -7.301,-0.046 -14.603,0.07 -21.901,-0.067 -3.051,-0.058 -5.298,0.919 -7.421,3.16 -5.807,6.131 -11.894,11.995 -17.753,18.078 -1.726,1.792 -3.59,1.445 -5.653,1.284 -4.622,-0.36 -8.514,1.945 -10.293,5.898 -1.629,3.62 -0.887,8.248 1.782,11.116 2.779,2.985 7.308,3.951 11.34,2.417 4.585,-1.745 7.161,-6.617 5.774,-11.999 -0.696,-2.7 0.082,-4.363 1.867,-6.093 3.859,-3.743 7.632,-7.574 11.455,-11.355 0.705,-0.698 1.371,-1.731 2.568,-1.179 0.962,0.443 0.875,1.502 0.884,2.381 0.032,2.945 -0.034,5.891 0.024,8.836 0.049,2.471 -1.717,3.455 -3.403,4.689 -4.098,2.999 -5.253,8.634 -2.843,13.078 2.355,4.342 7.876,6.323 12.596,4.518 4.551,-1.74 7.155,-6.584 6.167,-11.522 -0.498,-2.492 -1.88,-4.444 -3.783,-6.077 -0.867,-0.744 -2.232,-1.433 -2.428,-2.348 -1.265,-5.927 -0.948,-11.937 -0.256,-17.903 0.169,-1.458 1.768,-1.715 3.097,-1.716 6.531,-0.007 13.063,0.037 19.594,0.02 2.137,-0.005 3,1.105 3.001,3.102 0.002,11.782 0.007,23.565 0.001,35.347 -0.001,2.691 -1.661,3.493 -4.029,3.496 -4.866,0.005 -9.734,0.095 -14.599,0.025 -3.226,-0.047 -4.572,1.295 -4.544,4.604 0.083,9.854 1.069,9.016 -9.532,9.038 -7.685,0.017 -15.37,-0.056 -23.054,0.006 -2.486,0.02 -4.247,-0.655 -5.792,-2.862 -3.716,-5.307 -10.494,-6.1 -15.126,-2.09 -4.196,3.632 -4.51,10.397 -0.671,14.456 4.274,4.52 11.223,4.569 15.122,-0.614 2.927,-3.889 6.562,-3.352 10.31,-3.296 2.243,0.034 5.633,-1.098 6.454,0.718 0.922,2.038 -2.468,3.351 -3.852,5.079 -1.035,1.293 -2.301,2.404 -3.482,3.577 -1.295,1.285 -1.584,2.549 -0.145,3.963 1.416,1.392 2.703,1.15 3.995,-0.128 3.369,-3.332 6.963,-6.469 10.052,-10.043 4.023,-4.653 9.1,-3.3 13.92,-2.823 2.14,0.212 2.122,2.351 0.947,3.922 -0.667,0.891 -1.762,1.456 -2.647,2.188 -4.717,3.893 -5.164,10.705 -0.99,14.992 4.109,4.22 10.686,4.065 14.712,-0.347 4.02,-4.405 3.451,-11.363 -1.541,-14.851 -2.293,-1.602 -3.226,-3.393 -3.142,-6.058 0.104,-3.326 0.084,-6.66 0.021,-9.988 -0.051,-2.75 1.18,-3.952 3.942,-3.91 4.866,0.073 9.739,-0.133 14.599,0.039 3.505,0.125 4.739,-1.298 4.715,-4.748 -0.107,-15.24 -0.046,-30.481 -0.046,-45.723 z"
       style="fill:#0ea771;fill-opacity:1;fill-rule:nonzero;stroke:none"
       transform="matrix(0.35277776,0,0,-0.35277776,74.030363,141.10849)"
       clip-path="url(#clipPath4)" />
    <path
       id="path9"
       d="m 0,0 v 14.364 c 6.411,0 12.562,-0.162 18.702,0.028 25.864,0.799 40.483,27.26 27.113,49.304 -6.27,10.337 -16.323,14.367 -27.952,14.582 -13.036,0.241 -26.081,0.055 -39.518,0.055 v 14.623 c 4.932,0 9.692,0.1 14.447,-0.019 C 4.966,92.632 17.334,93.478 29.27,91.606 54.168,87.699 69.118,68.541 67.956,44.191 66.785,19.684 49.284,1.929 23.994,0.089 16.151,-0.482 8.231,0 0,0"
       style="fill:#0ea771;fill-opacity:1;fill-rule:nonzero;stroke:none"
       transform="matrix(0.35277776,0,0,-0.35277776,119.41956,163.82463)"
       clip-path="url(#clipPath10)" />
    <path
       id="path17"
       d="m 251.574,325.01 h 15.99 v -13.652 h -15.99 z"
       style="fill:#142c30;fill-opacity:1;fill-rule:nonzero;stroke:none"
       transform="matrix(0.35277776,0,0,-0.35277776,23.186549,252.48411)"
       clip-path="url(#clipPath18)" />
    <path
       id="path19"
       d="m 251.481,285.718 h 15.99 v -13.652 h -15.99 z"
       style="fill:#142c30;fill-opacity:1;fill-rule:nonzero;stroke:none"
       transform="matrix(0.35277776,0,0,-0.35277776,23.186549,252.48411)"
       clip-path="url(#clipPath20)" />
    <path
       id="path21"
       d="M 251.363,265.1 H 267.59 V 251.577 H 251.363 Z"
       style="fill:#142c30;fill-opacity:1;fill-rule:nonzero;stroke:none"
       transform="matrix(0.35277776,0,0,-0.35277776,23.186549,252.48411)"
       clip-path="url(#clipPath22)" />
    <path
       id="path23"
       d="m 239.533,317.938 h 6.309 v -6.487 h -6.309 z"
       style="fill:#142c30;fill-opacity:1;fill-rule:nonzero;stroke:none"
       transform="matrix(0.35277776,0,0,-0.35277776,23.186549,252.48411)"
       clip-path="url(#clipPath24)" />
    <path
       id="path25"
       d="m 235.063,278.506 h 8.94 v -9.192 h -8.94 z"
       style="fill:#142c30;fill-opacity:1;fill-rule:nonzero;stroke:none"
       transform="matrix(0.35277776,0,0,-0.35277776,23.186549,252.48411)"
       clip-path="url(#clipPath26)" />
    <path
       id="path27"
       d="M 0,0 V -6.268 C -1.7,-6.343 -3.46,-6.42 -5.702,-6.519 V 0 Z"
       style="fill:#142c30;fill-opacity:1;fill-rule:nonzero;stroke:none"
       transform="matrix(0.35277776,0,0,-0.35277776,105.98162,150.98359)"
       clip-path="url(#clipPath28)"
       inkscape:export-filename="dataup_logo_part1.svg"
       inkscape:export-xdpi="96"
       inkscape:export-ydpi="96" />
  </g>
</svg>
