<svg width="70" height="45" viewBox="0 0 193 39" fill="none" xmlns="http://www.w3.org/2000/svg">
<path d="M14.29 0.179993C26.18 0.179993 34.03 7.49001 34.03 18.2C34.03 28.9 26.18 36.22 14.29 36.22H0.0400391V0.179993H14.29ZM13.97 28.53C20.69 28.53 25.1 24.44 25.1 18.2C25.1 11.96 20.69 7.87 13.97 7.87H8.91004V28.52H13.97V28.53Z" fill="#44B079"/>
<path d="M67.4403 36.22H58.8303V34.07C56.7303 35.95 53.9303 37.03 50.4403 37.03C43.2903 37.03 37.2603 31.28 37.2603 22.72C37.2603 14.22 43.2803 8.41003 50.4403 8.41003C53.9403 8.41003 56.7303 9.49003 58.8303 11.37V9.22003H67.4403V36.22ZM58.8303 22.72C58.8303 18.58 55.7103 15.73 52.2103 15.73C48.4403 15.73 45.7002 18.58 45.7002 22.72C45.7002 26.92 48.4403 29.71 52.2103 29.71C55.7103 29.71 58.8303 26.91 58.8303 22.72Z" fill="#44B079"/>
<path d="M93.6902 35.03C91.5902 36.16 89.3902 37.02 86.3202 37.02C79.6002 37.02 75.5602 33.36 75.5602 26.26V16.04H70.6602V9.20999H75.5602V1.25H84.1702V9.20999H92.1302V16.04H84.1702V25.4C84.1702 28.2 85.5102 29.33 87.7702 29.33C88.9502 29.33 90.5701 28.9 91.7001 28.25L93.6902 35.03Z" fill="#44B079"/>
<path d="M124.83 36.22H116.22V34.07C114.12 35.95 111.32 37.03 107.83 37.03C100.68 37.03 94.6499 31.28 94.6499 22.72C94.6499 14.22 100.67 8.41003 107.83 8.41003C111.33 8.41003 114.12 9.49003 116.22 11.37V9.22003H124.83V36.22ZM116.23 22.72C116.23 18.58 113.11 15.73 109.61 15.73C105.84 15.73 103.1 18.58 103.1 22.72C103.1 26.92 105.84 29.71 109.61 29.71C113.11 29.71 116.23 26.91 116.23 22.72Z" fill="#44B079"/>
<path d="M162.55 0.809998V22.79C162.55 24.92 162.15 26.92 161.35 28.78C160.55 30.65 159.45 32.28 158.05 33.67C156.65 35.07 155.02 36.16 153.16 36.97C151.29 37.77 149.3 38.17 147.17 38.17C145.04 38.17 143.04 37.77 141.18 36.97C139.31 36.17 137.68 35.07 136.29 33.67C134.89 32.28 133.8 30.64 132.99 28.78C132.19 26.91 131.79 24.92 131.79 22.79V0.809998H138.07V22.79C138.07 24.01 138.3 25.17 138.75 26.27C139.2 27.37 139.87 28.35 140.74 29.23C141.61 30.1 142.6 30.77 143.7 31.22C144.8 31.67 145.96 31.9 147.18 31.9C149.69 31.9 151.84 31.01 153.62 29.23C154.49 28.36 155.15 27.37 155.61 26.27C156.06 25.17 156.29 24.01 156.29 22.79V0.809998H162.55Z" fill="#101424"/>
<path d="M184.74 1.86003C186.34 2.56003 187.74 3.50004 188.93 4.69004C190.12 5.88004 191.06 7.26004 191.76 8.85004C192.46 10.44 192.81 12.14 192.81 13.95C192.81 15.76 192.46 17.47 191.76 19.08C191.06 20.68 190.12 22.08 188.93 23.27C187.74 24.46 186.35 25.4 184.74 26.1C183.14 26.8 181.43 27.15 179.61 27.15H174.38L176.94 20.87H179.61C181.49 20.87 183.12 20.19 184.48 18.83C185.84 17.47 186.52 15.85 186.52 13.96C186.52 12.04 185.84 10.44 184.48 9.15003C183.12 7.79003 181.5 7.11003 179.61 7.11003H172.23V37.46H165.95V0.830035H179.61C181.43 0.810035 183.14 1.16003 184.74 1.86003Z" fill="#101424"/>
</svg>
