<svg width="19" height="45" viewBox="0 0 162 166" fill="none" xmlns="http://www.w3.org/2000/svg">
<path d="M37.8464 119.4C37.8464 115.18 34.4164 111.74 30.1864 111.74C25.9664 111.74 22.5264 115.17 22.5264 119.4C22.5264 123.62 25.9564 127.06 30.1864 127.06C34.4164 127.06 37.8464 123.62 37.8464 119.4ZM26.8164 119.4C26.8164 117.54 28.3364 116.02 30.1964 116.02C32.0564 116.02 33.5764 117.54 33.5764 119.4C33.5764 121.26 32.0564 122.78 30.1964 122.78C28.3264 122.78 26.8164 121.26 26.8164 119.4Z" fill="url(#paint0_linear_148_41)"/>
<path d="M29.5361 85.57L30.0461 86.07C30.1361 85.67 30.1961 85.25 30.1961 84.82C30.1961 81.73 27.6861 79.22 24.5961 79.22C21.5061 79.22 18.9961 81.73 18.9961 84.82C18.9961 87.91 21.5061 90.42 24.5961 90.42C24.9961 90.42 25.3861 90.38 25.7661 90.29L25.3161 89.85L29.5361 85.57ZM22.7661 84.82C22.7661 83.81 23.5861 82.99 24.5961 82.99C25.6061 82.99 26.4261 83.81 26.4261 84.82C26.4261 85.83 25.6061 86.65 24.5961 86.65C23.5861 86.65 22.7661 85.83 22.7661 84.82Z" fill="url(#paint1_linear_148_41)"/>
<path d="M22.5961 65.26H23.4061C22.2761 62.62 19.6561 60.77 16.6061 60.77C12.5261 60.77 9.20605 64.09 9.20605 68.17C9.20605 72.25 12.5261 75.57 16.6061 75.57C19.5761 75.57 22.1361 73.81 23.3161 71.27H22.5961V65.26ZM16.6061 71.8C14.6061 71.8 12.9761 70.17 12.9761 68.17C12.9761 66.17 14.6061 64.54 16.6061 64.54C18.6061 64.54 20.2361 66.17 20.2361 68.17C20.2361 70.17 18.6061 71.8 16.6061 71.8Z" fill="url(#paint2_linear_148_41)"/>
<path d="M60.296 46C64.376 46 67.696 42.68 67.696 38.6C67.696 34.52 64.376 31.2 60.296 31.2C56.216 31.2 52.896 34.52 52.896 38.6C52.896 42.68 56.216 46 60.296 46ZM60.296 34.97C62.296 34.97 63.926 36.6 63.926 38.6C63.926 40.6 62.296 42.23 60.296 42.23C58.296 42.23 56.666 40.6 56.666 38.6C56.666 36.6 58.296 34.97 60.296 34.97Z" fill="url(#paint3_linear_148_41)"/>
<path d="M143.036 59.84C141.756 61.06 141.666 63.34 142.856 64.57C144.056 65.82 146.316 65.86 147.596 64.67C148.866 63.48 148.886 61.25 147.636 59.96C146.406 58.69 144.296 58.64 143.036 59.84Z" fill="url(#paint4_linear_148_41)"/>
<path d="M150.596 63.42C150.756 63.28 150.936 63.16 151.086 63.01C153.966 60.19 156.846 57.38 159.716 54.57C159.506 53.18 159.296 51.87 159.086 50.66C156.006 53.65 152.916 56.63 149.816 59.65C150.396 60.79 150.636 62 150.596 63.42Z" fill="url(#paint5_linear_148_41)"/>
<path d="M103.946 84.75C102.686 85.81 102.446 87.82 103.686 89.21C104.806 90.46 106.796 90.58 108.046 89.42C109.346 88.21 109.456 86.49 108.216 84.96C107.146 83.76 105.236 83.66 103.946 84.75Z" fill="url(#paint6_linear_148_41)"/>
<path d="M143.486 23.25C142.256 24.44 142.276 26.44 143.536 27.7C144.706 28.86 146.686 28.83 147.886 27.62C149.066 26.44 149.056 24.48 147.856 23.27C146.706 22.11 144.676 22.1 143.486 23.25Z" fill="url(#paint7_linear_148_41)"/>
<path d="M160.036 56.84C154.816 61.92 149.596 67 144.366 72.07C143.836 72.58 143.616 73.1 143.606 73.83C143.606 75.44 143.486 77.06 143.476 78.67C143.466 79.34 143.276 79.86 142.766 80.33C141.486 81.52 140.256 82.76 138.996 83.97C138.846 84.12 138.656 84.23 138.436 84.4C137.986 84.02 137.566 83.71 137.366 83.15C137.506 82.97 137.626 82.78 137.786 82.63C138.816 81.63 139.826 80.61 140.886 79.64C141.426 79.15 141.666 78.62 141.656 77.88C141.646 76.22 141.756 74.56 141.766 72.91C141.766 72.27 141.976 71.81 142.426 71.38C143.636 70.25 144.826 69.09 146.026 67.94C146.136 67.83 146.246 67.71 146.476 67.46C146.136 67.44 145.976 67.44 145.806 67.43C145.266 67.4 144.726 67.43 144.206 67.32C142.146 66.88 140.746 65.65 140.206 63.6C139.666 61.57 140.166 59.73 141.766 58.36C143.306 57.05 145.116 56.72 147.056 57.42C147.556 57.6 148.036 57.85 148.516 58.07C149.176 57.6 154.316 52.7 158.666 48.45C158.156 45.8 157.656 43.69 157.256 42.29C156.396 39.25 155.646 34.33 155.016 28.91C153.866 30.03 152.706 31.14 151.546 32.25C151.216 32.57 151.116 32.91 151.106 33.34C151.086 34.75 151.016 36.17 151.006 37.58C151.006 38.15 150.806 38.56 150.386 38.92C149.886 39.34 149.436 39.82 148.966 40.28C145.646 43.5 142.336 46.72 139.016 49.93C138.976 49.97 138.936 50.02 138.896 50.06C138.916 53.9 138.516 57.74 137.696 61.5C135.056 73.6 128.076 83.17 119.476 91.78C114.796 96.47 110.106 101.17 105.306 105.74C102.136 108.76 98.9162 111.74 95.6462 114.66C95.5662 114.73 95.2862 114.95 94.9062 115.24V125.38H98.1462C99.3262 124.14 100.576 123.01 101.776 121.82C103.126 120.48 104.506 119.17 105.866 117.85C107.266 116.5 108.666 115.14 110.056 113.78C111.416 112.46 112.776 111.14 114.096 109.83C114.156 107.61 114.256 105.48 114.256 103.35C114.256 102.53 114.526 101.98 115.106 101.43C117.316 99.32 119.516 97.2 121.706 95.07L122.376 97.16C120.526 98.95 118.676 100.74 116.816 102.52C116.366 102.95 116.236 103.4 116.226 103.99C116.196 105.89 116.096 107.79 116.086 109.69C116.076 110.45 115.826 111 115.256 111.49C114.586 112.06 113.976 112.7 113.346 113.31C109.196 117.33 105.056 121.36 100.906 125.38H105.916L128.156 100.41C127.896 99.73 127.746 99 127.746 98.23C127.746 94.92 130.426 92.24 133.736 92.24C137.046 92.24 139.726 94.92 139.726 98.23C139.726 101.54 137.046 104.22 133.736 104.22C133.446 104.22 133.156 104.2 132.866 104.16L108.616 131.4H94.9262V157.53C94.9262 157.53 91.4162 158.44 85.4762 158.67V65.47L103.866 44.42V31.86H103.046C106.066 30.93 108.256 28.11 108.256 24.79C108.256 20.71 104.936 17.39 100.856 17.39C96.7762 17.39 93.4562 20.71 93.4562 24.79C93.4562 28.11 95.6562 30.93 98.6662 31.86H97.8462V42.13L85.4662 56.3V22.09C89.9462 21.03 93.2862 17 93.2862 12.2C93.2862 6.58998 88.7262 2.03998 83.1262 2.03998C77.5162 2.03998 72.9662 6.59998 72.9662 12.2C72.9662 16.51 75.6662 20.21 79.4662 21.68V122.38L68.5662 114.27V73.05L37.0862 46.51C37.4262 45.49 37.6162 44.4 37.6162 43.26C37.6162 37.65 33.0562 33.1 27.4562 33.1C21.8562 33.1 17.2962 37.66 17.2962 43.26C17.2962 48.87 21.8562 53.42 27.4562 53.42C29.7462 53.42 31.8562 52.66 33.5562 51.38L62.5662 75.83V96.83L46.0362 82.19V71.44L38.7662 65.26H23.4362C23.8162 66.15 24.0362 67.14 24.0362 68.17C24.0362 69.28 23.7862 70.33 23.3462 71.27H36.5562L40.0262 74.22V84.9L62.5962 104.96L62.5662 103.66V117.28L79.4762 129.86V158.61C76.3062 158.47 72.7262 158.12 68.8462 157.42V137.06L53.2762 125.52V108.86L30.0762 86.05C29.5962 88.16 27.9162 89.82 25.7962 90.27L47.2662 111.38V128.54L62.8362 140.08V156.1C54.5462 153.97 45.2162 150.22 35.5062 143.83C9.01618 126.4 6.16618 95.89 5.93618 86.41C5.91618 85.61 5.57618 84.88 5.04618 84.36C4.51618 83.84 3.77618 83.52 2.97618 83.52C1.35618 83.52 0.0261758 84.82 0.00617578 86.44C-0.453824 121.6 24.8262 156.06 61.4862 163.65C67.7262 164.94 73.7262 165.6 79.4762 165.67C81.5062 165.7 83.5162 165.65 85.4862 165.53C88.7162 165.34 91.8662 164.95 94.9362 164.39C116.646 160.39 134.296 147.33 148.196 128.57C163.356 108.1 162.616 76.16 160.036 56.84ZM27.4262 48.53C24.5162 48.53 22.1562 46.16 22.1562 43.26C22.1562 40.35 24.5262 37.99 27.4262 37.99C30.3362 37.99 32.6962 40.36 32.6962 43.26C32.7062 46.17 30.3362 48.53 27.4262 48.53ZM83.1062 17.47C80.1962 17.47 77.8362 15.1 77.8362 12.2C77.8362 9.28998 80.2062 6.92999 83.1062 6.92999C86.0162 6.92999 88.3762 9.29998 88.3762 12.2C88.3862 15.11 86.0162 17.47 83.1062 17.47ZM107.256 153.53C107.256 153.53 113.646 141.51 122.286 135.69C130.926 129.87 147.076 112.49 146.516 71.45C146.506 71.45 166.796 121.41 107.256 153.53Z" fill="url(#paint8_linear_148_41)"/>
<path d="M98.9863 75.29C100.336 73.95 101.716 72.64 103.076 71.32C104.476 69.97 105.876 68.61 107.266 67.25C108.626 65.93 109.986 64.61 111.306 63.3C111.366 61.08 111.466 58.95 111.466 56.82C111.466 56 111.736 55.45 112.316 54.9C114.526 52.79 116.726 50.67 118.916 48.54L119.586 50.63C117.736 52.42 115.886 54.21 114.026 55.99C113.576 56.42 113.446 56.87 113.436 57.46C113.406 59.36 113.306 61.26 113.296 63.16C113.296 63.92 113.036 64.47 112.466 64.96C111.796 65.53 111.186 66.17 110.556 66.78C106.246 70.96 101.946 75.14 97.6363 79.32C95.2163 88.12 94.9263 95.18 94.9263 98.06V105.68C97.5263 103.58 100.096 101.45 102.656 99.29C112.326 91.11 122.216 82.63 128.166 71.23C130.996 65.8 132.956 59.95 134.316 53.99C135.006 50.94 135.546 47.86 135.956 44.77C136.156 43.23 136.336 41.69 136.476 40.14C136.596 38.89 137.176 36.74 136.826 35.54C138.006 39.61 138.686 43.82 138.866 48.06C139.376 47.57 139.896 47.09 140.396 46.59C141.406 45.6 142.426 44.62 143.436 43.64C144.476 42.63 145.516 41.63 146.556 40.62C147.566 39.64 148.576 38.66 149.556 37.68C149.596 36.03 149.676 34.44 149.676 32.86C149.676 32.25 149.876 31.84 150.306 31.43C151.826 29.98 153.326 28.53 154.836 27.07C154.516 24.15 154.236 21.14 153.986 18.22C152.556 19.61 151.116 21 149.696 22.4C150.336 23.66 150.786 24.89 150.576 26.26C150.356 27.69 149.606 28.79 148.456 29.63C146.836 30.81 144.076 30.59 142.506 29.23C140.416 27.42 140.366 24.71 141.266 23.21C141.846 22.24 142.606 21.46 143.656 20.99C145.196 20.31 146.716 20.44 148.256 21.12C148.966 20.53 151.496 18.11 153.796 15.87C153.096 7.2 152.736 0 152.736 0C145.596 15.26 132.926 28.25 117.016 46.12C107.316 55.67 101.856 66.28 98.7963 75.51C98.8463 75.42 98.9163 75.36 98.9863 75.29ZM126.926 59.59C124.566 61.93 122.206 64.26 119.846 66.59C119.516 66.91 119.366 67.25 119.356 67.71C119.296 70.01 119.186 72.31 119.156 74.61C119.146 75.34 118.946 75.88 118.406 76.4C115.976 78.73 113.596 81.11 111.196 83.47C110.896 83.77 110.616 84.08 110.316 84.4C110.446 84.81 110.576 85.16 110.676 85.53C111.156 87.29 110.866 88.92 109.736 90.35C108.566 91.83 106.126 92.64 103.806 91.49C101.856 90.53 100.726 88.42 101.076 86.32C101.426 84.2 103.156 82.55 105.286 82.27C106.236 82.14 107.156 82.28 108.046 82.63C108.396 82.77 108.746 82.89 109.086 83.01C109.306 82.81 109.476 82.68 109.626 82.53C111.886 80.33 114.146 78.13 116.396 75.92C116.606 75.71 116.816 75.5 117.016 75.28C117.246 75.02 117.356 74.72 117.366 74.35C117.426 71.92 117.526 69.5 117.556 67.07C117.566 66.42 117.786 65.97 118.256 65.52C120.966 62.93 123.656 60.32 126.346 57.72L126.926 59.59Z" fill="url(#paint9_linear_148_41)"/>
<path d="M30.0462 86.07L29.5362 85.57L25.3262 89.86L25.7762 90.3C27.8862 89.84 29.5662 88.18 30.0462 86.07Z" fill="url(#paint10_linear_148_41)"/>
<path d="M30.0462 86.07L29.5362 85.57L25.3262 89.86L25.7762 90.3C27.8862 89.84 29.5662 88.18 30.0462 86.07Z" fill="url(#paint11_linear_148_41)"/>
<path d="M23.4062 65.26H22.5962V71.27H23.3162C23.7562 70.33 24.0062 69.28 24.0062 68.17C24.0062 67.14 23.7862 66.16 23.4062 65.26Z" fill="url(#paint12_linear_148_41)"/>
<path d="M23.4062 65.26H22.5962V71.27H23.3162C23.7562 70.33 24.0062 69.28 24.0062 68.17C24.0062 67.14 23.7862 66.16 23.4062 65.26Z" fill="url(#paint13_linear_148_41)"/>
<defs>
<linearGradient id="paint0_linear_148_41" x1="78.6751" y1="148.783" x2="9.46776" y2="106.839" gradientUnits="userSpaceOnUse">
<stop stop-color="#1E5E52"/>
<stop offset="1" stop-color="#48AC3A"/>
</linearGradient>
<linearGradient id="paint1_linear_148_41" x1="94.6807" y1="127.3" x2="25.4733" y2="85.3559" gradientUnits="userSpaceOnUse">
<stop stop-color="#1E5E52"/>
<stop offset="1" stop-color="#48AC3A"/>
</linearGradient>
<linearGradient id="paint2_linear_148_41" x1="97.6886" y1="117.316" x2="28.4813" y2="75.372" gradientUnits="userSpaceOnUse">
<stop stop-color="#1E5E52"/>
<stop offset="1" stop-color="#48AC3A"/>
</linearGradient>
<linearGradient id="paint3_linear_148_41" x1="121.928" y1="75.95" x2="52.7204" y2="34.0061" gradientUnits="userSpaceOnUse">
<stop stop-color="#1E5E52"/>
<stop offset="1" stop-color="#48AC3A"/>
</linearGradient>
<linearGradient id="paint4_linear_148_41" x1="134.257" y1="55.6063" x2="65.05" y2="13.6625" gradientUnits="userSpaceOnUse">
<stop stop-color="#1E5E52"/>
<stop offset="1" stop-color="#48AC3A"/>
</linearGradient>
<linearGradient id="paint5_linear_148_41" x1="139.15" y1="47.5339" x2="69.9426" y2="5.59012" gradientUnits="userSpaceOnUse">
<stop stop-color="#1E5E52"/>
<stop offset="1" stop-color="#48AC3A"/>
</linearGradient>
<linearGradient id="paint6_linear_148_41" x1="112.696" y1="91.1815" x2="43.4891" y2="49.2377" gradientUnits="userSpaceOnUse">
<stop stop-color="#1E5E52"/>
<stop offset="1" stop-color="#48AC3A"/>
</linearGradient>
<linearGradient id="paint7_linear_148_41" x1="150.682" y1="28.5059" x2="81.4745" y2="-13.4378" gradientUnits="userSpaceOnUse">
<stop stop-color="#1E5E52"/>
<stop offset="1" stop-color="#48AC3A"/>
</linearGradient>
<linearGradient id="paint8_linear_148_41" x1="108.143" y1="98.6947" x2="38.9359" y2="56.7508" gradientUnits="userSpaceOnUse">
<stop stop-color="#1E5E52"/>
<stop offset="1" stop-color="#48AC3A"/>
</linearGradient>
<linearGradient id="paint9_linear_148_41" x1="132.68" y1="58.2098" x2="63.4723" y2="16.2659" gradientUnits="userSpaceOnUse">
<stop stop-color="#1E5E52"/>
<stop offset="1" stop-color="#48AC3A"/>
</linearGradient>
<linearGradient id="paint10_linear_148_41" x1="94.1236" y1="128.219" x2="24.9162" y2="86.2754" gradientUnits="userSpaceOnUse">
<stop stop-color="#1E5E52"/>
<stop offset="1" stop-color="#48AC3A"/>
</linearGradient>
<linearGradient id="paint11_linear_148_41" x1="91.2903" y1="126.502" x2="22.0829" y2="84.5583" gradientUnits="userSpaceOnUse">
<stop stop-color="#1E5E52"/>
<stop offset="1" stop-color="#48AC3A"/>
</linearGradient>
<linearGradient id="paint12_linear_148_41" x1="99.3647" y1="114.551" x2="30.1573" y2="72.6071" gradientUnits="userSpaceOnUse">
<stop stop-color="#1E5E52"/>
<stop offset="1" stop-color="#48AC3A"/>
</linearGradient>
<linearGradient id="paint13_linear_148_41" x1="98.7569" y1="114.183" x2="29.5493" y2="72.2387" gradientUnits="userSpaceOnUse">
<stop stop-color="#1E5E52"/>
<stop offset="1" stop-color="#48AC3A"/>
</linearGradient>
</defs>
</svg>
