<svg width="106" height="29" viewBox="0 0 106 29" fill="none" xmlns="http://www.w3.org/2000/svg">
<path fill-rule="evenodd" clip-rule="evenodd" d="M13.4364 1.65558C14.481 2.08191 15.4119 2.66491 16.2286 3.40425C15.7634 3.40425 15.2978 3.40425 14.8325 3.40425C14.2667 2.83873 13.5686 2.43059 12.7383 2.18018C13.058 2.08295 13.2905 1.90809 13.4364 1.65558Z" fill="#3B9870"/>
<path fill-rule="evenodd" clip-rule="evenodd" d="M13.435 1.6556C13.2891 1.9081 13.0567 2.08297 12.737 2.1802C13.5673 2.43061 14.2654 2.83875 14.8312 3.40427C14.5729 5.19106 13.6424 5.77372 12.0389 5.15294C11.5736 5.15294 11.108 5.15294 10.6427 5.15294C8.89755 5.15294 7.15237 5.15294 5.40719 5.15294C5.15518 5.29913 4.98067 5.53205 4.88363 5.85241C4.72727 7.61157 4.49481 9.36025 4.18556 11.0984C3.95275 9.69949 3.72029 8.30055 3.48749 6.90161C3.09377 7.54687 2.91926 8.24634 2.96393 9.00002C2.38209 9.00002 1.80059 9.00002 1.21875 9.00002C1.21875 6.43542 1.21875 3.87046 1.21875 1.30586C5.29899 1.23766 9.37085 1.35447 13.435 1.6556Z" fill="#23BF7C"/>
<path fill-rule="evenodd" clip-rule="evenodd" d="M10.6435 0.956114C7.38599 0.956114 4.12808 0.956114 0.870521 0.956114C0.870521 8.06727 0.870521 15.1788 0.870521 22.2899C4.12808 22.2899 7.38599 22.2899 10.6435 22.2899C7.33259 22.6376 3.9588 22.754 0.521484 22.6397C0.521484 15.2952 0.521484 7.95081 0.521484 0.60638C3.9588 0.492016 7.33259 0.608478 10.6435 0.956114Z" fill="#3D7761"/>
<path fill-rule="evenodd" clip-rule="evenodd" d="M10.6443 5.50269C12.348 6.27525 13.7441 7.44126 14.8328 9.00003C15.9888 13.1989 14.5926 16.1133 10.6443 17.7434C9.01537 17.7434 7.38677 17.7434 5.75781 17.7434C5.75781 13.663 5.75781 9.58304 5.75781 5.50269C7.38677 5.50269 9.01537 5.50269 10.6443 5.50269Z" fill="#E9E9E9"/>
<path fill-rule="evenodd" clip-rule="evenodd" d="M10.6426 5.50264C10.6426 5.38618 10.6426 5.26937 10.6426 5.15291C11.1078 5.15291 11.5735 5.15291 12.0387 5.15291C13.7284 5.84958 14.6593 7.13206 14.831 8.99999C13.7424 7.44122 12.3462 6.27521 10.6426 5.50264Z" fill="#34936C"/>
<path fill-rule="evenodd" clip-rule="evenodd" d="M5.4082 5.15291C7.15339 5.15291 8.89857 5.15291 10.6438 5.15291C10.6438 5.26937 10.6438 5.38618 10.6438 5.50264C9.0148 5.50264 7.38619 5.50264 5.75724 5.50264C5.75724 9.583 5.75724 13.663 5.75724 17.7434C7.38619 17.7434 9.0148 17.7434 10.6438 17.7434C8.96663 18.0885 7.22145 18.2054 5.4082 18.0931C5.4082 13.7798 5.4082 9.46618 5.4082 5.15291Z" fill="#113A2B"/>
<path fill-rule="evenodd" clip-rule="evenodd" d="M14.8314 3.40424C15.2966 3.40424 15.7622 3.40424 16.2275 3.40424C16.6338 4.34397 17.2736 5.1599 18.1472 5.85238C18.2184 7.00545 18.5092 8.05466 19.0198 8.99999C19.0774 10.0555 19.0191 11.1047 18.8453 12.1476C17.899 11.6489 17.0264 11.7657 16.2275 12.4973C15.9943 11.516 15.7619 10.5836 15.5294 9.69946C15.5294 9.23326 15.2966 8.99999 14.8314 8.99999C14.6596 7.13206 13.7287 5.84958 12.0391 5.15291C13.6425 5.77369 14.5731 5.19103 14.8314 3.40424Z" fill="#17AF6F"/>
<path fill-rule="evenodd" clip-rule="evenodd" d="M56.3672 6.55184C59.371 6.20595 61.8726 7.13834 63.8715 9.34971C64.2111 10.0114 64.4439 10.7109 64.5696 11.4481C64.7441 15.1766 64.8024 18.9073 64.7441 22.6396C63.3479 22.6396 61.9518 22.6396 60.5556 22.6396C60.5923 21.012 60.1267 20.8371 59.1595 22.115C56.9201 23.2405 54.7093 23.1821 52.5278 21.9402C49.7736 18.1522 50.5882 15.4127 54.9711 13.7214C56.8433 13.6616 58.705 13.4867 60.5556 13.1968C60.0387 11.8531 59.0495 11.0368 57.5888 10.7487C56.4367 11.0214 55.3316 11.3712 54.273 11.7979C53.1997 11.7688 52.385 11.3026 51.8297 10.3989C51.3645 9.93272 51.3645 9.46618 51.8297 8.99998C52.4786 8.40823 53.1767 7.88363 53.9239 7.42617C54.8328 7.28978 55.6475 6.9981 56.3672 6.55184Z" fill="#153A3E"/>
<path fill-rule="evenodd" clip-rule="evenodd" d="M99.9961 10.7487C96.2837 10.272 94.4223 11.9042 94.4115 15.645C94.6227 18.1854 96.0188 19.3515 98.5999 19.1423C99.6282 18.8604 100.559 18.3942 101.392 17.7434C102.324 16.1727 103.313 14.657 104.359 13.1968C104.657 13.7651 105.006 13.8816 105.406 13.5466C105.58 14.3544 105.638 15.1704 105.581 15.9947C105.581 16.1112 105.581 16.228 105.581 16.3444C105.099 15.9227 104.692 16.0391 104.359 16.6942C103.624 18.2872 102.635 19.6861 101.392 20.891C99.6586 21.2974 97.9134 21.3558 96.1567 21.0659C95.2764 20.5969 94.3455 20.3055 93.3644 20.1915C93.3644 22.0566 93.3644 23.9221 93.3644 25.7873C92.7826 25.7873 92.2011 25.7873 91.6192 25.7873C91.3215 19.9607 91.2635 14.1317 91.4447 8.30055C91.7759 7.35626 92.4161 7.06493 93.3644 7.42621C93.9253 7.79308 94.1578 8.31768 94.0625 9.00001C95.5019 8.2334 97.0143 7.65074 98.5999 7.25134C99.5849 7.26953 100.516 7.5028 101.392 7.95081C101.701 8.23934 101.818 8.58908 101.741 9.00001C102.221 8.94511 102.686 9.00351 103.137 9.17488C102.843 9.79986 102.785 10.4409 102.963 11.0984C102.818 11.2582 102.644 11.3751 102.439 11.4482C101.733 10.863 100.919 10.6298 99.9961 10.7487Z" fill="#103D3F"/>
<path fill-rule="evenodd" clip-rule="evenodd" d="M16.2285 3.40424C19.6965 6.32942 20.9182 10.06 19.8934 14.5957C19.4065 16.0013 18.7667 17.2838 17.9737 18.4428C18.4547 17.2013 18.8037 15.9188 19.0208 14.5957C19.4861 12.7306 19.4861 10.8651 19.0208 8.99999C18.5102 8.05466 18.2194 7.00545 18.1482 5.85238C17.2746 5.1599 16.6348 4.34397 16.2285 3.40424Z" fill="#348665"/>
<path fill-rule="evenodd" clip-rule="evenodd" d="M27.3964 6.55188C30.3583 6.35393 32.8016 7.34473 34.7261 9.52463C34.9007 10.0492 35.0752 10.5738 35.2497 11.0984C35.4242 14.9438 35.4825 18.7908 35.4242 22.6397C34.0281 22.6397 32.6319 22.6397 31.2358 22.6397C31.2997 20.6056 30.8344 20.4308 29.8396 22.1151C27.4306 23.2881 25.1036 23.1132 22.8589 21.5905C20.83 18.7562 21.179 16.2497 23.906 14.0712C26.3371 13.7183 28.7803 13.427 31.2358 13.1968C30.4759 11.5346 29.1964 10.7767 27.3964 10.9236C26.4882 11.2653 25.6156 11.6734 24.7786 12.1476C23.8411 11.7363 23.0268 11.1533 22.3354 10.399C22.0628 9.89395 22.121 9.42775 22.5099 9.00002C23.9043 7.6448 25.5329 6.82887 27.3964 6.55188Z" fill="#163A3E"/>
<path fill-rule="evenodd" clip-rule="evenodd" d="M40.3118 3.05453C41.9408 3.05453 43.5694 3.05453 45.1983 3.05453C45.1983 4.33701 45.1983 5.61914 45.1983 6.90161C46.7107 6.90161 48.2234 6.90161 49.7358 6.90161C49.7358 8.30055 49.7358 9.69949 49.7358 11.0984C48.2234 11.0984 46.7107 11.0984 45.1983 11.0984C45.1983 13.5466 45.1983 15.9947 45.1983 18.4428C46.3882 18.5306 47.5515 18.4138 48.6887 18.0931C49.154 19.4921 49.154 20.891 48.6887 22.2899C44.1474 23.8935 41.4134 22.3777 40.4863 17.7434C40.3118 15.5313 40.2539 13.3164 40.3118 11.0984C39.3809 11.0984 38.4504 11.0984 37.5195 11.0984C37.5195 9.69949 37.5195 8.30055 37.5195 6.90161C38.4504 6.90161 39.3809 6.90161 40.3118 6.90161C40.3118 5.61914 40.3118 4.33701 40.3118 3.05453Z" fill="#133A3E"/>
<path fill-rule="evenodd" clip-rule="evenodd" d="M26.6991 16.3445C28.0952 16.3445 29.4914 16.3445 30.8875 16.3445C30.8027 18.2365 29.8139 19.2857 27.9207 19.4921C25.9651 18.9856 25.5581 17.9364 26.6991 16.3445Z" fill="#E9E9E9"/>
<path fill-rule="evenodd" clip-rule="evenodd" d="M56.3675 16.3445C57.7637 16.3445 59.1598 16.3445 60.556 16.3445C60.5514 18.3942 59.5043 19.4434 57.4146 19.4921C55.1494 18.9801 54.8004 17.9308 56.3675 16.3445Z" fill="#E9E9E9"/>
<path fill-rule="evenodd" clip-rule="evenodd" d="M19.0204 9C19.4856 10.8651 19.4856 12.7306 19.0204 14.5958C18.4274 14.5398 17.8455 14.5978 17.2752 14.7706C18.2319 15.9045 18.1157 16.9537 16.9261 17.9182C16.583 18.1249 16.3502 18.0081 16.2281 17.5685C16.8501 16.9816 16.9663 16.3406 16.5771 15.645C15.7534 16.7036 14.8225 17.6363 13.7848 18.4428C13.1304 18.9101 12.6651 18.7352 12.3887 17.9182C15.2372 15.9517 16.2843 13.2122 15.53 9.69947C15.7625 10.5836 15.9949 11.516 16.2281 12.4973C17.027 11.7657 17.8996 11.6489 18.8458 12.1476C19.0197 11.1047 19.078 10.0555 19.0204 9Z" fill="#099B68"/>
<path fill-rule="evenodd" clip-rule="evenodd" d="M5.40761 5.15291C5.40761 9.46618 5.40761 13.7798 5.40761 18.0931C7.68856 18.3456 10.0156 18.6369 12.3883 18.9674C10.5192 19.5809 8.59955 19.989 6.62923 20.1915C6.12802 20.1709 5.66275 20.0544 5.23309 19.8418C5.03414 21.0113 4.62716 21.1277 4.01146 20.1915C3.6872 20.6073 3.57097 21.0735 3.66242 21.5904C3.31339 21.5904 2.96435 21.5904 2.61531 21.5904C2.6572 20.6444 2.30816 20.4111 1.5682 20.891C1.21951 16.9341 1.10329 12.9705 1.21917 8.99999C1.80101 8.99999 2.3825 8.99999 2.96435 8.99999C2.91967 8.24631 3.09419 7.54684 3.4879 6.90158C3.72071 8.30052 3.95317 9.69946 4.18598 11.0984C4.49522 9.36021 4.72768 7.61154 4.88405 5.85238C4.98108 5.53202 5.1556 5.2991 5.40761 5.15291Z" fill="#18A26E"/>
<path fill-rule="evenodd" clip-rule="evenodd" d="M10.6441 0.9561C11.6469 1.06172 12.5774 1.29499 13.4364 1.65557C9.37223 1.35445 5.30037 1.23764 1.22013 1.30583C1.22013 3.87044 1.22013 6.43539 1.22013 8.99999C1.10425 12.9705 1.22048 16.9341 1.56917 20.891C2.30912 20.4111 2.65816 20.6444 2.61628 21.5904C2.96531 21.5904 3.31435 21.5904 3.66339 21.5904C3.57194 21.0735 3.68817 20.6073 4.01242 20.1915C4.62812 21.1277 5.0351 21.0113 5.23405 19.8418C5.66371 20.0544 6.12898 20.1709 6.6302 20.1915C8.60051 19.989 10.5202 19.5809 12.3893 18.9674C10.0165 18.6369 7.68952 18.3456 5.40857 18.0931C7.22181 18.2054 8.967 18.0885 10.6441 17.7434C14.5924 16.1132 15.9886 13.1989 14.8326 8.99999C15.2978 8.99999 15.5306 9.23327 15.5306 9.69946C16.2849 13.2122 15.2378 15.9517 12.3893 17.9182C12.6657 18.7352 13.131 18.9101 13.7854 18.4428C14.8231 17.6363 15.754 16.7036 16.5777 15.6449C16.9669 16.3406 16.8507 16.9816 16.2287 17.5685C16.3509 18.0081 16.5837 18.1249 16.9268 17.9182C18.1163 16.9537 18.2325 15.9045 17.2758 14.7706C17.8461 14.5978 18.428 14.5398 19.021 14.5957C18.8039 15.9188 18.4549 17.2013 17.9739 18.4428C16.5425 20.2691 14.6811 21.4932 12.3893 22.115C11.819 22.2878 11.2371 22.3459 10.6441 22.2899C7.38656 22.2899 4.12865 22.2899 0.871094 22.2899C0.871094 15.1788 0.871094 8.06725 0.871094 0.9561C4.12865 0.9561 7.38656 0.9561 10.6441 0.9561Z" fill="#179066"/>
<path fill-rule="evenodd" clip-rule="evenodd" d="M68.235 0.606384C69.8639 0.606384 71.4926 0.606384 73.1215 0.606384C73.0632 5.27079 73.1215 9.93415 73.296 14.5958C74.6161 18.0914 77.001 19.0822 80.4513 17.5685C81.4869 16.8341 82.1267 15.8429 82.371 14.5958C82.5455 9.93415 82.6038 5.27079 82.5455 0.606384C84.1744 0.606384 85.8031 0.606384 87.432 0.606384C87.4903 5.62053 87.432 10.6336 87.2575 15.645C85.9654 20.4335 82.824 22.8817 77.8335 22.9894C73.443 23.1422 70.4182 21.1603 68.7585 17.0439C68.257 11.5849 68.0825 6.10561 68.235 0.606384Z" fill="#173D40"/>
<path fill-rule="evenodd" clip-rule="evenodd" d="M105.581 15.9947C105.638 15.1704 105.58 14.3544 105.406 13.5465C105.006 13.8816 104.657 13.7651 104.359 13.1968C103.313 14.657 102.324 16.1727 101.392 17.7434C100.559 18.3942 99.6284 18.8604 98.6001 19.1423C96.019 19.3514 94.6228 18.1854 94.4117 15.645C96.6591 19.2101 99.0444 19.327 101.567 15.9947C101.855 14.8119 101.796 13.6459 101.392 12.4973C100.885 11.908 100.42 11.3254 99.9963 10.7487C100.919 10.6298 101.733 10.863 102.44 11.4481C102.644 11.375 102.819 11.2582 102.963 11.0984C102.785 10.4409 102.843 9.79984 103.138 9.17486C102.686 9.00349 102.221 8.94509 101.741 9C101.818 8.58906 101.702 8.23932 101.392 7.95079C100.516 7.50278 99.5851 7.26951 98.6001 7.25132C97.0144 7.65072 95.5021 8.23338 94.0626 9C94.1579 8.31766 93.9255 7.79306 93.3646 7.42619C92.4162 7.06492 91.7761 7.35624 91.4449 8.30053C91.2637 14.1317 91.3216 19.9607 91.6194 25.7873C92.2012 25.7873 92.7827 25.7873 93.3646 25.7873C93.3646 23.9221 93.3646 22.0566 93.3646 20.1915C94.3457 20.3055 95.2766 20.5968 96.1569 21.0658C97.9136 21.3558 99.6587 21.2974 101.392 20.891C102.635 19.6861 103.624 18.2872 104.359 16.6942C104.692 16.0391 105.099 15.9226 105.581 16.3444C104.526 19.9596 102.083 21.9416 98.2511 22.2899C97.0197 22.1563 95.8563 21.8066 94.7607 21.2407C94.4127 23.5608 94.2965 25.8922 94.4117 28.2354C93.1318 28.2354 91.8522 28.2354 90.5723 28.2354C90.5723 21.1242 90.5723 14.0127 90.5723 6.90159C91.8522 6.90159 93.1318 6.90159 94.4117 6.90159C94.3558 7.49579 94.4138 8.0788 94.5862 8.65026C95.568 7.25517 96.9059 6.67216 98.6001 6.90159C104.139 7.52307 106.466 10.5539 105.581 15.9947Z" fill="#1E3B3D"/>
<path fill-rule="evenodd" clip-rule="evenodd" d="M99.9967 10.7487C100.42 11.3254 100.886 11.908 101.393 12.4973C101.797 13.6459 101.855 14.8119 101.567 15.9947C99.0449 19.3269 96.6596 19.2101 94.4121 15.6449C94.4229 11.9042 96.2843 10.272 99.9967 10.7487Z" fill="#E9E9E9"/>
</svg>
